{
	"asset":{
		"generator":"Khronos glTF Blender I/O v3.6.27",
		"version":"2.0"
	},
	"extensionsUsed":[
		"KHR_materials_emissive_strength"
	],
	"scene":0,
	"scenes":[
		{
			"name":"Scene",
			"nodes":[
				0,
				1,
				2,
				3,
				4
			]
		}
	],
	"nodes":[
		{
			"mesh":0,
			"name":"Cube",
			"translation":[
				0,
				1.1148648262023926,
				0
			]
		},
		{
			"mesh":1,
			"name":"Text",
			"rotation":[
				0.7071068286895752,
				0,
				0,
				0.7071067690849304
			],
			"scale":[
				0.8599395155906677,
				0.8599395155906677,
				0.8599395155906677
			],
			"translation":[
				-0.7913522720336914,
				1.3645713329315186,
				0.01521720364689827
			]
		},
		{
			"mesh":2,
			"name":"Cube.001",
			"translation":[
				0,
				1.1148648262023926,
				0
			]
		},
		{
			"mesh":3,
			"name":"Cube.002",
			"translation":[
				0,
				1.1148648262023926,
				0
			]
		},
		{
			"mesh":4,
			"name":"Text.001",
			"rotation":[
				0.7071068286895752,
				0,
				0,
				0.7071067690849304
			],
			"scale":[
				0.8599395155906677,
				0.8599395155906677,
				0.8599395155906677
			],
			"translation":[
				-0.7913522720336914,
				1.3645713329315186,
				0.01521720364689827
			]
		}
	],
	"materials":[
		{
			"doubleSided":true,
			"name":"Material.005",
			"pbrMetallicRoughness":{
				"metallicFactor":0.5739436745643616,
				"roughnessFactor":0.0387323796749115
			}
		},
		{
			"doubleSided":true,
			"emissiveFactor":[
				1,
				0.657115825827911,
				0.2888795677369346
			],
			"extensions":{
				"KHR_materials_emissive_strength":{
					"emissiveStrength":7.356583476066589
				}
			},
			"name":"Material.003",
			"pbrMetallicRoughness":{
				"baseColorFactor":[
					0,
					0,
					0,
					1
				]
			}
		},
		{
			"doubleSided":true,
			"name":"Material.004",
			"pbrMetallicRoughness":{
				"baseColorFactor":[
					0,
					0,
					0,
					1
				],
				"metallicFactor":0
			}
		}
	],
	"meshes":[
		{
			"name":"Cube.005",
			"primitives":[
				{
					"attributes":{
						"POSITION":0,
						"NORMAL":1,
						"TEXCOORD_0":2
					},
					"indices":3,
					"material":0
				}
			]
		},
		{
			"name":"Text",
			"primitives":[
				{
					"attributes":{
						"POSITION":4,
						"NORMAL":5,
						"TEXCOORD_0":6
					},
					"indices":7,
					"material":1
				}
			]
		},
		{
			"name":"Cube.001",
			"primitives":[
				{
					"attributes":{
						"POSITION":8,
						"NORMAL":9,
						"TEXCOORD_0":10
					},
					"indices":11,
					"material":2
				}
			]
		},
		{
			"name":"Cube.002",
			"primitives":[
				{
					"attributes":{
						"POSITION":12,
						"NORMAL":13,
						"TEXCOORD_0":14
					},
					"indices":15,
					"material":2
				}
			]
		},
		{
			"name":"Text.001",
			"primitives":[
				{
					"attributes":{
						"POSITION":16,
						"NORMAL":17,
						"TEXCOORD_0":18
					},
					"indices":19,
					"material":1
				}
			]
		}
	],
	"accessors":[
		{
			"bufferView":0,
			"componentType":5126,
			"count":1701,
			"max":[
				1,
				1,
				-0.07607275247573853
			],
			"min":[
				-1,
				-1,
				-0.26259857416152954
			],
			"type":"VEC3"
		},
		{
			"bufferView":1,
			"componentType":5126,
			"count":1701,
			"type":"VEC3"
		},
		{
			"bufferView":2,
			"componentType":5126,
			"count":1701,
			"type":"VEC2"
		},
		{
			"bufferView":3,
			"componentType":5123,
			"count":5934,
			"type":"SCALAR"
		},
		{
			"bufferView":4,
			"componentType":5126,
			"count":323,
			"max":[
				1.1080001592636108,
				0.03800000250339508,
				0.14300000667572021
			],
			"min":[
				0.03700000047683716,
				-0.03800000250339508,
				-0.6242372393608093
			],
			"type":"VEC3"
		},
		{
			"bufferView":5,
			"componentType":5126,
			"count":323,
			"type":"VEC3"
		},
		{
			"bufferView":6,
			"componentType":5126,
			"count":323,
			"type":"VEC2"
		},
		{
			"bufferView":7,
			"componentType":5123,
			"count":1539,
			"type":"SCALAR"
		},
		{
			"bufferView":8,
			"componentType":5126,
			"count":44,
			"max":[
				0.8811668157577515,
				0.8811668157577515,
				-0.012750394642353058
			],
			"min":[
				-0.8811668157577515,
				-0.8811668157577515,
				-0.012750394642353058
			],
			"type":"VEC3"
		},
		{
			"bufferView":9,
			"componentType":5126,
			"count":44,
			"type":"VEC3"
		},
		{
			"bufferView":10,
			"componentType":5126,
			"count":44,
			"type":"VEC2"
		},
		{
			"bufferView":11,
			"componentType":5123,
			"count":126,
			"type":"SCALAR"
		},
		{
			"bufferView":12,
			"componentType":5126,
			"count":240,
			"max":[
				0.9176639914512634,
				0.9176639914512634,
				-0.012750394642353058
			],
			"min":[
				-0.9176639914512634,
				-0.9176639914512634,
				-0.07607275247573853
			],
			"type":"VEC3"
		},
		{
			"bufferView":13,
			"componentType":5126,
			"count":240,
			"type":"VEC3"
		},
		{
			"bufferView":14,
			"componentType":5126,
			"count":240,
			"type":"VEC2"
		},
		{
			"bufferView":15,
			"componentType":5123,
			"count":1056,
			"type":"SCALAR"
		},
		{
			"bufferView":16,
			"componentType":5126,
			"count":11,
			"max":[
				1.0900001525878906,
				0.03800000250339508,
				0.125
			],
			"min":[
				0.055000003427267075,
				0.03800000250339508,
				-0.597000002861023
			],
			"type":"VEC3"
		},
		{
			"bufferView":17,
			"componentType":5126,
			"count":11,
			"type":"VEC3"
		},
		{
			"bufferView":18,
			"componentType":5126,
			"count":11,
			"type":"VEC2"
		},
		{
			"bufferView":19,
			"componentType":5123,
			"count":21,
			"type":"SCALAR"
		}
	],
	"bufferViews":[
		{
			"buffer":0,
			"byteLength":20412,
			"byteOffset":0,
			"target":34962
		},
		{
			"buffer":0,
			"byteLength":20412,
			"byteOffset":20412,
			"target":34962
		},
		{
			"buffer":0,
			"byteLength":13608,
			"byteOffset":40824,
			"target":34962
		},
		{
			"buffer":0,
			"byteLength":11868,
			"byteOffset":54432,
			"target":34963
		},
		{
			"buffer":0,
			"byteLength":3876,
			"byteOffset":66300,
			"target":34962
		},
		{
			"buffer":0,
			"byteLength":3876,
			"byteOffset":70176,
			"target":34962
		},
		{
			"buffer":0,
			"byteLength":2584,
			"byteOffset":74052,
			"target":34962
		},
		{
			"buffer":0,
			"byteLength":3078,
			"byteOffset":76636,
			"target":34963
		},
		{
			"buffer":0,
			"byteLength":528,
			"byteOffset":79716,
			"target":34962
		},
		{
			"buffer":0,
			"byteLength":528,
			"byteOffset":80244,
			"target":34962
		},
		{
			"buffer":0,
			"byteLength":352,
			"byteOffset":80772,
			"target":34962
		},
		{
			"buffer":0,
			"byteLength":252,
			"byteOffset":81124,
			"target":34963
		},
		{
			"buffer":0,
			"byteLength":2880,
			"byteOffset":81376,
			"target":34962
		},
		{
			"buffer":0,
			"byteLength":2880,
			"byteOffset":84256,
			"target":34962
		},
		{
			"buffer":0,
			"byteLength":1920,
			"byteOffset":87136,
			"target":34962
		},
		{
			"buffer":0,
			"byteLength":2112,
			"byteOffset":89056,
			"target":34963
		},
		{
			"buffer":0,
			"byteLength":132,
			"byteOffset":91168,
			"target":34962
		},
		{
			"buffer":0,
			"byteLength":132,
			"byteOffset":91300,
			"target":34962
		},
		{
			"buffer":0,
			"byteLength":88,
			"byteOffset":91432,
			"target":34962
		},
		{
			"buffer":0,
			"byteLength":42,
			"byteOffset":91520,
			"target":34963
		}
	],
	"buffers":[
		{
			"byteLength":91564,
			"uri":"data:application/octet-stream;base64,"
		}
	]
}
